<svg xmlns="http://www.w3.org/2000/svg" aria-hidden="true" class="w-full h-auto block" viewBox="0 0 200 120"><rect width="200" height="14" x="0" y="0" fill="currentColor" opacity=".1"/><rect width="20" height="4" x="6" y="5" fill="currentColor" opacity=".3" rx="1"/><rect width="50" height="106" x="0" y="14" fill="currentColor" opacity=".07"/><rect width="38" height="4" x="6" y="22" fill="currentColor" opacity=".25" rx="1"/><rect width="30" height="3" x="6" y="32" fill="currentColor" opacity=".18" rx="1"/><rect width="35" height="3" x="6" y="40" fill="currentColor" opacity=".18" rx="1"/><rect width="28" height="3" x="6" y="48" fill="currentColor" opacity=".18" rx="1"/><rect width="32" height="3" x="6" y="56" fill="currentColor" opacity=".18" rx="1"/><rect width="80" height="6" x="60" y="25" fill="currentColor" opacity=".35" rx="1"/><rect width="120" height="8" x="60" y="38" fill="currentColor" opacity=".18" rx="2"/><rect width="37" height="22" x="60" y="55" fill="currentColor" opacity=".12" rx="2"/><rect width="37" height="22" x="101" y="55" fill="currentColor" opacity=".12" rx="2"/><rect width="37" height="22" x="142" y="55" fill="currentColor" opacity=".12" rx="2"/><rect width="37" height="22" x="60" y="82" fill="currentColor" opacity=".12" rx="2"/><rect width="37" height="22" x="101" y="82" fill="currentColor" opacity=".12" rx="2"/><rect width="37" height="22" x="142" y="82" fill="currentColor" opacity=".12" rx="2"/></svg>